<svg width="166" height="50" viewBox="0 0 166 50" fill="none" xmlns="http://www.w3.org/2000/svg">
<path d="M134.197 1.64317L127.149 0.260503C126.434 0.120233 125.676 0.714746 125.493 1.60818L117.834 39.1324L120.913 49.0285L127.64 41.0561L135.299 3.53189C135.379 2.61842 134.912 1.78344 134.197 1.64317ZM121.431 45.9708L119.396 39.8103L125.728 41.0527L121.431 45.9708ZM126.622 39.2767L119.268 37.8339L125.176 8.88672L127.628 9.36765L122.066 36.6173L124.517 37.0983L130.079 9.84858L132.53 10.3295L126.622 39.2767ZM132.822 8.90001L125.468 7.45723L126.398 2.90072C126.544 2.18598 127.164 1.75011 127.675 1.8503L132.986 2.89232C133.599 3.01255 133.898 3.62876 133.752 4.34351L132.822 8.90001Z" fill="#A8C5DD"/>
<path d="M12.593 33.175V42.8235H5.7375V14.386H17.0852C19.2596 14.386 21.1802 14.7896 22.8469 15.5969C24.5266 16.3912 25.8221 17.5305 26.7336 19.0149C27.6581 20.4862 28.1203 22.1594 28.1203 24.0344C28.1203 26.8079 27.1242 29.0279 25.132 30.6946C23.1529 32.3482 20.4315 33.175 16.968 33.175H12.593ZM12.593 27.8821H17.0852C18.4133 27.8821 19.4224 27.55 20.1125 26.886C20.8156 26.2219 21.1672 25.2844 21.1672 24.0735C21.1672 22.7454 20.8091 21.6842 20.093 20.8899C19.3768 20.0956 18.4003 19.692 17.1633 19.679H12.593V27.8821ZM38.8477 37.55H50.7813V42.8235H31.9922V14.386H38.8477V37.55ZM70.4148 37.511H61.0203L59.3797 42.8235H52.0555L62.4852 14.386H68.9305L79.4383 42.8235H72.075L70.4148 37.511ZM62.6609 32.218H68.7742L65.7078 22.3547L62.6609 32.218ZM105.478 42.8235H98.6617L88.5836 25.1282V42.8235H81.7281V14.386H88.5836L98.6422 32.0813V14.386H105.478V42.8235ZM161.649 19.679H153.114V42.8235H146.259V19.679H137.88V14.386H161.649V19.679Z" fill="#A8C5DD"/>
</svg>
