<?xml version="1.0" encoding="utf-8"?>
<!-- Generator: Adobe Illustrator 19.0.0, SVG Export Plug-In . SVG Version: 6.00 Build 0)  -->
<svg version="1.1" id="Layer_1" xmlns="http://www.w3.org/2000/svg" xmlns:xlink="http://www.w3.org/1999/xlink" x="0px" y="0px"
	 viewBox="0 0 200 80" style="enable-background:new 0 0 200 80;" xml:space="preserve">
<style type="text/css">
	.st0{fill:#FFFFFF;}
	.st1{fill:none;}
</style>
<path id="XMLID_22_" class="st0" d="M28.1,27.1H16.9v4.6l10.3,0c3,0,4.8,1.9,4.8,4.9c0,3.1-1.8,5-4.9,5H16.9v0.1v14.8h5.3V46.2h5.9
	c5.4,0,9.2-4,9.2-9.6S33.5,27.1,28.1,27.1z"/>
<path id="XMLID_9_" class="st0" d="M49,50h-5V26h5V50z M48.6,52H44v4h17v-4H48.6L48.6,52z"/>
<g id="XMLID_10_">
	<polygon id="XMLID_6_" class="st0" points="74.3,26 64.1,56 69.9,56 79.8,26 	"/>
	<path id="XMLID_16_" class="st0" d="M83.1,26L83.1,26l-7.7,22h10l2.5,8h5.4L83.1,26z M80.5,45l1.8-5.5l1.8,5.5H80.5z"/>
</g>
<path id="XMLID_13_" class="st0" d="M103,27.1V56h-5V26h4.9L103,27.1z M121,26v17.9c0,1.7,0,4.5,0,4.5l-16-21.3v8
	c1,1.3,14.6,21,14.6,21h5.4V26H121z"/>
<path id="XMLID_3_" class="st0" d="M154,31v-5h22v5H154z M162,33v23h6V33H162z"/>
<g id="XMLID_29_">
	<path id="XMLID_30_" class="st0" d="M53.1,73.4l-0.2-0.5c0,0,0-0.1,0.1-0.2c-0.1-0.1-0.1-0.1-0.1-0.1c0-0.1,0-0.2,0.1-0.3
		c-0.1-0.1-0.1-0.1-0.1-0.2l0.1-0.3c0-0.2,0.1-0.3,0.2-0.3l0-0.1c-0.1,0-0.1-0.1-0.1-0.1c0,0,0-0.1,0.1-0.2l0-0.2
		c0-0.2,0.1-0.3,0.3-0.4c0-0.4,0.1-0.6,0.3-0.8c0.2-0.1,0.3-0.3,0.4-0.4c0.1-0.1,0.3-0.4,0.5-0.8c0.2-0.1,0.3-0.2,0.5-0.3
		c0.1-0.2,0.1-0.3,0.2-0.4c0.1,0,0.2-0.2,0.4-0.4c0.2-0.2,0.4-0.4,0.7-0.4l0.1,0c0-0.1,0.2-0.3,0.3-0.4c0.2-0.1,0.4-0.2,0.5-0.3
		c0.1-0.1,0.3-0.1,0.4-0.2c0.1-0.1,0.2-0.2,0.4-0.2l0.2-0.1c0.1,0,0.1-0.1,0.2-0.2l0.1,0h0.1c0.1,0,0.2,0,0.3-0.1
		c0.1-0.1,0.2-0.1,0.2-0.2l-0.2,0.1h-0.1l-0.4,0.2l-0.6,0.1c-0.1-0.1-0.2-0.1-0.3-0.2c-0.4-0.1-0.6-0.4-0.6-0.9
		c0-0.4,0.1-0.7,0.2-0.9c0.2-0.2,0.3-0.4,0.3-0.6c0.1-0.2,0.2-0.4,0.3-0.5c0.2-0.2,0.3-0.3,0.3-0.4c0,0,0-0.1,0.1-0.1
		s0.2-0.1,0.2-0.2c0-0.1,0.2-0.2,0.4-0.4c0-0.1,0.2-0.2,0.6-0.6c0,0,0.1-0.1,0.1-0.2c0-0.1,0.1-0.1,0.1-0.1c0.2,0,0.3-0.1,0.5-0.2
		l0.4-0.4c0.1-0.1,0.3-0.3,0.6-0.4c0.1-0.2,0.2-0.3,0.3-0.3c0,0,0.1,0,0.2,0.1h0c0,0,0.1-0.1,0.2-0.2c0.1-0.2,0.3-0.3,0.4-0.3
		c0.2,0.1,0.3,0.1,0.3,0.1v0c0,0,0,0,0-0.1l0.5-0.3l0.2,0c0.2-0.2,0.5-0.2,0.7-0.2c0,0,0.1,0,0.2,0c0.1-0.1,0.3-0.1,0.5-0.1
		c0,0,0.1,0,0.1,0.1c0.1,0,0.1,0.1,0.1,0.1c0,0,0.1,0,0.1,0c0,0,0.1,0,0.1,0c0.1,0,0.2,0,0.3,0.1c0.1,0.1,0.2,0.1,0.3,0.1
		c0.1,0,0.2,0.1,0.4,0.4c0.1,0.3,0.2,0.5,0.2,0.8l0,0.3l0,0.2c-0.1,0.2-0.2,0.4-0.2,0.5c0,0.1-0.1,0.3-0.2,0.5l-0.1,0.3
		c-0.1,0.1-0.2,0.2-0.2,0.2l0,0c0,0.3-0.1,0.4-0.3,0.4h-0.1c-0.2,0-0.4-0.1-0.5-0.3c-0.1-0.2-0.2-0.3-0.2-0.5c0-0.2,0.1-0.3,0.3-0.5
		c0.2-0.2,0.3-0.2,0.5-0.2l0,0c0,0,0-0.1,0-0.1c0-0.1,0-0.1,0.1-0.1l0.1-0.1c0-0.1,0-0.1,0.1-0.2c0-0.1,0.1-0.1,0.1-0.2
		c0-0.1-0.1-0.3-0.2-0.5c-0.1-0.2-0.2-0.3-0.3-0.3c0,0-0.1,0-0.1,0c0,0-0.1,0-0.1,0l-0.2,0c-0.3,0-0.7,0.1-1.2,0.4l-0.1,0h-0.3
		c0,0,0,0-0.1,0.1c-0.1,0-0.2,0.1-0.3,0.3s-0.2,0.3-0.4,0.4c-0.2,0.1-0.3,0.2-0.4,0.2l-0.2,0.1c-0.1,0-0.2,0.1-0.3,0.2
		c-0.1,0.1-0.3,0.3-0.5,0.5c-0.4,0.4-0.6,0.6-0.6,0.7l-0.2,0.1l-0.3,0.4c-0.2,0.4-0.4,0.7-0.6,0.8c0,0-0.1,0.2-0.3,0.5
		c-0.1,0.4-0.2,0.6-0.3,0.6c-0.1,0-0.1,0.1-0.1,0.1c0,0,0,0,0,0.1c0.2,0,0.3-0.1,0.4-0.2c0.1-0.1,0.2-0.1,0.2-0.1c0,0,0.1,0,0.3-0.1
		h0.1c0.1,0,0.2,0,0.3-0.1h0.2c0-0.1,0.1-0.1,0.3-0.2c0.1-0.1,0.3-0.2,0.6-0.3c0.3-0.1,0.6-0.3,0.9-0.4c0.3-0.1,0.7-0.2,0.9-0.3
		c0.3-0.1,0.4-0.1,0.5-0.1c0.5,0,0.7,0.1,0.7,0.3c0,0.4-0.2,0.8-0.6,1.1c-0.4,0.3-0.6,0.5-0.7,0.5l-0.2,0L62.2,65
		c-0.1,0-0.2,0-0.2,0.1l-1,0.5l-0.4,0.3L60.3,66c-0.3,0.2-0.4,0.4-0.6,0.4l-0.2,0c-0.1,0.3-0.3,0.5-0.4,0.5c0,0-0.1,0-0.2-0.1
		c0,0,0,0,0,0.1c0,0-0.1,0.2-0.2,0.3c-0.1,0.2-0.2,0.2-0.3,0.3c-0.1,0-0.2,0.1-0.2,0.1c0,0.3-0.1,0.4-0.2,0.4l-0.2,0v0.2
		c0,0.1-0.1,0.2-0.2,0.2c-0.1,0.1-0.2,0.1-0.2,0.1c0,0-0.1,0.1-0.1,0.1l-0.2-0.1l0,0c0,0.1,0,0.1,0,0.2c0,0,0,0.1-0.1,0.1
		c-0.1,0.1-0.1,0.2-0.2,0.4c-0.1,0-0.1,0.1-0.2,0.1c-0.1,0.1-0.1,0.3-0.2,0.4c-0.1,0-0.1,0.1-0.2,0.2c-0.1,0.1-0.1,0.2-0.1,0.4
		c0,0.1-0.1,0.2-0.2,0.3c-0.1,0.1-0.2,0.2-0.2,0.4c-0.1,0.2-0.1,0.4-0.2,0.6c0,0.2-0.1,0.4-0.2,0.6c0,0,0,0,0,0l0,0.3
		c0,0,0,0.1,0.1,0.3c0.1,0.2,0.1,0.3,0.2,0.3c0.1,0,0.1,0.1,0.2,0.2c0,0,0.1,0,0.3,0.1l0.1-0.1c0.1,0,0.2,0,0.2,0.1h0l0.2,0l0.1,0
		c0.1,0,0.1,0,0.2-0.1c0,0,0,0,0,0l0.2,0.1c0.2-0.1,0.3-0.2,0.4-0.2c0.1,0,0.1,0,0.2-0.1c0-0.1,0.1-0.1,0.2-0.1c0,0,0.1,0,0.1,0.1h0
		c0,0,0.1,0,0.1-0.1c0.1-0.1,0.2-0.1,0.3-0.1c0.1,0,0.2-0.1,0.3-0.1c0.1,0,0.2-0.1,0.3-0.2c0.2,0,0.3-0.1,0.4-0.2l0.1,0
		c0.1,0,0.1-0.1,0.2-0.1c0.1-0.1,0.3-0.3,0.7-0.5l0.3-0.2c0.2-0.2,0.5-0.4,0.8-0.5c0.3-0.1,0.5-0.3,0.5-0.4l0.1-0.1
		c0.3,0,0.5-0.1,0.6-0.3c0.1-0.1,0.3-0.2,0.4-0.3c0-0.1,0.1-0.2,0.1-0.2l0.2,0l0,0c0-0.2,0.1-0.3,0.2-0.3c0.1,0,0.2-0.1,0.3-0.2
		c0.1-0.1,0.3-0.2,0.4-0.3l0.6-0.6c0,0,0.1-0.1,0.2-0.2c0-0.1,0.1-0.1,0.2-0.1l0.1-0.1c0,0,0.1-0.1,0.1-0.1c0.1,0,0.2-0.2,0.3-0.3
		c0.1-0.2,0.3-0.3,0.5-0.3c0,0,0.1,0,0.1,0.1c0,0.6-0.1,0.9-0.3,1.1c-0.2,0.2-0.5,0.4-0.9,0.8c0,0-0.1,0.1-0.2,0.2
		c-0.1,0.1-0.2,0.2-0.2,0.2c0,0-0.1,0.1-0.2,0.2c-0.1,0.1-0.2,0.2-0.2,0.2c-0.1,0-0.2,0.1-0.3,0.3L64.1,70l-0.2,0.3
		c-0.1,0-0.1,0.1-0.2,0.1c-0.1,0-0.1,0.1-0.1,0.1c0,0.1-0.1,0.1-0.2,0.2c-0.1,0.1-0.2,0.2-0.5,0.4l-0.5,0.5
		c-0.1,0.1-0.2,0.1-0.3,0.2l-0.5,0.5c-0.1,0.2-0.3,0.2-0.4,0.2H61c0,0-0.1,0-0.1-0.1l-0.1,0c-0.1,0-0.1,0-0.1,0l0,0.3
		c0,0-0.1,0-0.1,0l-0.1,0c-0.1,0.2-0.3,0.4-0.5,0.5c-0.2,0.1-0.3,0.2-0.3,0.2c0,0-0.1,0-0.1,0.1c-0.1,0-0.1,0.1-0.2,0.1
		c-0.1,0.1-0.2,0.1-0.4,0.2s-0.3,0.1-0.4,0.2c-0.1,0.1-0.2,0.1-0.2,0.1c-0.1,0-0.1,0-0.2-0.1c-0.1,0.1-0.2,0.2-0.2,0.3
		c0,0.1-0.1,0.2-0.2,0.2c0,0-0.3,0.1-0.6,0.2c-0.4,0.1-0.6,0.2-0.6,0.3l-0.3-0.1c-0.1,0.1-0.3,0.1-0.4,0.1l-0.2,0
		c-0.2,0-0.2,0.1-0.3,0.1l-1-0.5c-0.1,0-0.2-0.1-0.2-0.1c0,0,0,0-0.1,0c-0.3-0.1-0.5-0.3-0.5-0.5c-0.1-0.2-0.2-0.3-0.3-0.4
		L53.1,73.4z"/>
	<path id="XMLID_33_" class="st0" d="M70.4,63.9l0.3-0.3c0.2-0.2,0.4-0.3,0.5-0.3c0-0.1,0.2-0.2,0.4-0.5c0.1,0,0.2-0.1,0.3-0.2
		c0.1-0.1,0.2-0.2,0.3-0.3s0.2-0.1,0.4-0.3c0.1-0.2,0.3-0.3,0.6-0.4l0.1-0.1c0.2-0.1,0.3-0.2,0.4-0.2l2.7-1.2c0.1,0,0.2,0,0.5,0.2
		c0.3,0.2,0.4,0.4,0.4,0.7c0,0.5-0.1,0.8-0.3,0.9c0,0,0,0.1,0,0.1c0,0.1-0.1,0.4-0.4,0.8c-0.2,0.4-0.4,0.6-0.5,0.7
		c-0.1,0.1-0.1,0.2-0.1,0.3l-0.1,0.2c0,0.1,0,0.2-0.1,0.3L75.5,65c-0.2,0.3-0.4,0.6-0.4,0.8c0,0-0.1,0.1-0.2,0.2l-0.2,0.3
		c-0.1,0.4-0.2,0.6-0.3,0.6c-0.1,0.1-0.2,0.1-0.2,0.2c0,0.2,0,0.4-0.1,0.5l-0.6,1.5c0,0.1-0.1,0.3-0.3,0.6l-0.1,0.3L73,70.6V71
		l-0.1,0.1c0,0-0.1,0.2-0.1,0.4c0,0.2-0.1,0.4-0.1,0.5c-0.1,0.1-0.1,0.2-0.1,0.3v0.2l0,0.2c0,0,0,0.1,0,0.2c0,0.1,0,0.2,0,0.3
		c0,0,0,0.1,0,0.1l0-0.1c0.1,0,0.2-0.1,0.3-0.2c0.1-0.1,0.2-0.2,0.2-0.2c0.1,0,0.1-0.1,0.2-0.3c0-0.2,0.1-0.2,0.2-0.3
		c0.3-0.3,0.5-0.5,0.5-0.6l0.7-1.2l0.4-0.6c0-0.2,0.1-0.4,0.4-0.6c0.1-0.2,0.2-0.4,0.3-0.5c0-0.1,0.1-0.2,0.1-0.2
		c0.1,0,0.2,0,0.2,0.1c0,0.1,0.1,0.1,0.1,0.1c0.1,0,0.1,0,0.1-0.1c0-0.1,0-0.2-0.1-0.3c0,0,0,0,0,0c0-0.2,0.1-0.4,0.3-0.7
		c0.2-0.2,0.3-0.4,0.4-0.6c0.1-0.2,0.2-0.4,0.5-0.7c0.3-0.3,0.4-0.5,0.5-0.7c0.1-0.1,0.1-0.2,0.2-0.2h0c0.2-0.1,0.3-0.2,0.4-0.2
		c0,0,0.1,0,0.1,0.1c0.1-0.1,0.2-0.1,0.2-0.1c0-0.1-0.1-0.1-0.2-0.2c-0.1,0-0.2-0.1-0.2-0.1c0,0,0.2-0.3,0.5-0.6
		c0.3-0.4,0.5-0.6,0.5-0.6c0,0,0.1,0,0.1,0.1l0.1,0v-0.2c0,0,0.1-0.1,0.2-0.2c0-0.1,0.1-0.2,0.2-0.3s0.2-0.1,0.2-0.1l0-0.2h0
		c0.1-0.1,0.2-0.1,0.2-0.1l0.3,0c0.1,0,0.1-0.1,0.1-0.2c-0.1,0-0.2-0.1-0.2-0.2c0-0.1,0.1-0.1,0.2-0.2c0.1-0.1,0.2-0.2,0.2-0.3
		c0-0.1,0.2-0.3,0.6-0.6c0.1-0.1,0.2-0.3,0.3-0.4c0.1-0.1,0.3-0.3,0.7-0.5c0-0.2,0.1-0.3,0.1-0.3l0.3,0l0.1-0.1l0-0.3
		c0.4-0.2,0.6-0.4,0.7-0.4c0.1-0.1,0.2-0.1,0.3-0.2c0.4-0.3,0.6-0.4,0.8-0.4l0.3,0c0.1,0,0.3-0.1,0.4-0.1c0.1,0,0.1,0,0.2,0
		c0,0,0.1,0.1,0.3,0.1c0.1,0,0.2,0.1,0.3,0.4c0.1,0.2,0.1,0.4,0.1,0.5l0,0.4c0,0.2-0.1,0.5-0.3,0.7c-0.2,0.3-0.4,0.4-0.5,0.4l-0.2,0
		C85.4,61,85.2,61,85,61c-0.2,0-0.4,0.1-0.5,0.3l-0.1,0h-0.1l0,0v0.1c0,0-0.1,0.1-0.2,0.2c-0.1,0.1-0.2,0.2-0.4,0.3
		c-0.2,0.1-0.3,0.3-0.5,0.4c-0.1,0.2-0.3,0.3-0.5,0.4c-0.2,0.1-0.3,0.3-0.4,0.5l0,0h-0.1c-0.2,0.2-0.3,0.4-0.4,0.5
		c-0.1,0.2-0.2,0.3-0.3,0.3c-0.1,0.1-0.1,0.1-0.2,0.2c0,0-0.1,0.1-0.2,0.2l-0.1,0.2c-0.1,0.1-0.3,0.2-0.4,0.4
		c-0.2,0.2-0.3,0.3-0.3,0.4l-0.1,0.1l-0.2,0.1c-0.1,0.1-0.2,0.2-0.3,0.3c0,0.2-0.1,0.3-0.2,0.3c-0.1,0.1-0.1,0.2-0.2,0.4
		c0,0.2-0.1,0.3-0.2,0.3l-0.2,0c0,0-0.1,0.1-0.1,0.2l-0.1,0.1c0,0-0.1,0.1-0.1,0.3c0,0.1-0.1,0.2-0.3,0.3c-0.1,0.2-0.2,0.4-0.2,0.4
		l-0.1,0.1c0,0.1,0,0.2,0,0.2c-0.1,0.2-0.3,0.3-0.4,0.4c-0.1,0.1-0.1,0.1-0.1,0.2c0,0-0.1,0.1-0.1,0.1c-0.1,0-0.1,0.1-0.1,0.2
		c0,0.1-0.1,0.2-0.2,0.2l-0.1,0.2v0.2c0,0-0.2,0.2-0.5,0.6l-0.4,0.7l-1,1.3c-0.2,0-0.3,0.1-0.3,0.4l-0.3,0.4
		c-0.1,0.1-0.1,0.2-0.1,0.3c0,0.1-0.1,0.1-0.3,0.1c-0.3,0.3-0.6,0.5-0.9,0.5c-0.1,0-0.2,0-0.2,0l-0.4-0.3c-0.1-0.1-0.2-0.1-0.2-0.2
		c0,0-0.1-0.1-0.1-0.1c-0.2-0.1-0.3-0.4-0.5-0.9c-0.2-0.5-0.3-0.9-0.3-1.3c0,0,0-0.3,0.1-0.7v0c0,0,0-0.1-0.1-0.1
		c0-0.1-0.1-0.1-0.1-0.2c0-0.1,0-0.1,0.1-0.2c0.1,0,0.1-0.1,0.1-0.1c0-0.2,0-0.4,0.1-0.5c0-0.1,0.1-0.3,0.1-0.3l0-0.2
		c0-0.1,0-0.2,0.1-0.3c0.1-0.1,0.2-0.1,0.2-0.2l0-0.3c0-0.1,0.1-0.2,0.3-0.3c0-0.1,0-0.1,0-0.2c0-0.1,0-0.2,0.1-0.2
		c0-0.1,0.1-0.2,0.1-0.3c0-0.1,0-0.2,0.1-0.3c0.1-0.1,0.1-0.2,0.1-0.3c0-0.2,0.1-0.4,0.3-0.6c0.2-0.2,0.3-0.4,0.3-0.5
		c0-0.1,0.1-0.2,0.1-0.2c0.2,0,0.3,0,0.3-0.1c0-0.1-0.1-0.1-0.2-0.2l0-0.1c0-0.2,0.1-0.4,0.4-0.6c0-0.2,0.1-0.4,0.2-0.4l-0.1-0.2
		c0-0.1,0.1-0.3,0.2-0.6c0.2-0.3,0.3-0.6,0.4-0.9l0.1-0.2c0.1-0.1,0.1-0.1,0.1-0.2l0-0.1c0.1-0.2,0.1-0.3,0.1-0.3
		c0-0.1,0-0.2-0.1-0.2c-0.3,0-0.4,0.1-0.6,0.3l0,0.1h-0.2c-0.1,0-0.3,0.1-0.5,0.4L73,63c-0.4,0.3-0.7,0.5-0.9,0.7
		c-0.2,0.2-0.4,0.3-0.5,0.5l-0.2,0.3c0,0.1-0.1,0.3-0.2,0.6c-0.1,0.4-0.3,0.5-0.7,0.5c-0.5,0-0.8-0.3-0.8-0.8
		C69.7,64.6,70,64.3,70.4,63.9z"/>
	<path id="XMLID_40_" class="st0" d="M81.6,73.4l-0.2-0.5c0,0,0-0.1,0.1-0.2c-0.1-0.1-0.1-0.1-0.1-0.1c0-0.1,0-0.2,0.1-0.3
		c-0.1-0.1-0.1-0.1-0.1-0.2l0.1-0.3c0-0.2,0.1-0.3,0.2-0.3l0-0.1c-0.1,0-0.1-0.1-0.1-0.1c0,0,0-0.1,0.1-0.2l0-0.2
		c0-0.2,0.1-0.3,0.3-0.4c0-0.4,0.1-0.6,0.3-0.8c0.2-0.1,0.3-0.3,0.4-0.4c0.1-0.1,0.3-0.4,0.5-0.8c0.2-0.1,0.3-0.2,0.5-0.3
		c0.1-0.2,0.1-0.3,0.2-0.4c0.1,0,0.2-0.2,0.4-0.4c0.2-0.2,0.4-0.4,0.7-0.4l0.1,0c0-0.1,0.2-0.3,0.3-0.4c0.2-0.1,0.4-0.2,0.5-0.3
		c0.1-0.1,0.3-0.1,0.4-0.2c0.1-0.1,0.2-0.2,0.4-0.2l0.2-0.1c0.1,0,0.1-0.1,0.2-0.2l0.1,0h0.1c0.1,0,0.2,0,0.3-0.1
		c0.1-0.1,0.2-0.1,0.2-0.2l-0.2,0.1h-0.1l-0.4,0.2l-0.6,0.1c-0.1-0.1-0.2-0.1-0.3-0.2c-0.4-0.1-0.6-0.4-0.6-0.9
		c0-0.4,0.1-0.7,0.2-0.9c0.2-0.2,0.3-0.4,0.3-0.6c0.1-0.2,0.2-0.4,0.3-0.5c0.2-0.2,0.3-0.3,0.3-0.4c0,0,0-0.1,0.1-0.1
		s0.2-0.1,0.2-0.2c0-0.1,0.2-0.2,0.4-0.4c0-0.1,0.2-0.2,0.6-0.6c0,0,0.1-0.1,0.1-0.2c0-0.1,0.1-0.1,0.1-0.1c0.2,0,0.3-0.1,0.5-0.2
		l0.4-0.4c0.1-0.1,0.3-0.3,0.6-0.4c0.1-0.2,0.2-0.3,0.3-0.3c0,0,0.1,0,0.2,0.1h0c0,0,0.1-0.1,0.2-0.2c0.1-0.2,0.3-0.3,0.4-0.3
		c0.2,0.1,0.3,0.1,0.3,0.1v0c0,0,0,0,0-0.1l0.5-0.3l0.2,0c0.2-0.2,0.5-0.2,0.7-0.2c0,0,0.1,0,0.2,0c0.1-0.1,0.3-0.1,0.5-0.1
		c0,0,0.1,0,0.1,0.1c0.1,0,0.1,0.1,0.1,0.1c0,0,0.1,0,0.1,0c0,0,0.1,0,0.1,0c0.1,0,0.2,0,0.3,0.1c0.1,0.1,0.2,0.1,0.3,0.1
		c0.1,0,0.2,0.1,0.4,0.4c0.1,0.3,0.2,0.5,0.2,0.8l0,0.3l0,0.2c-0.1,0.2-0.2,0.4-0.2,0.5c0,0.1-0.1,0.3-0.2,0.5l-0.1,0.3
		c-0.1,0.1-0.2,0.2-0.2,0.2l0,0c0,0.3-0.1,0.4-0.3,0.4h-0.1c-0.2,0-0.4-0.1-0.5-0.3c-0.1-0.2-0.2-0.3-0.2-0.5c0-0.2,0.1-0.3,0.3-0.5
		c0.2-0.2,0.3-0.2,0.5-0.2l0,0c0,0,0-0.1,0-0.1c0-0.1,0-0.1,0.1-0.1l0.1-0.1c0-0.1,0-0.1,0.1-0.2c0-0.1,0.1-0.1,0.1-0.2
		c0-0.1-0.1-0.3-0.2-0.5c-0.1-0.2-0.2-0.3-0.3-0.3c0,0-0.1,0-0.1,0c0,0-0.1,0-0.1,0l-0.2,0c-0.3,0-0.7,0.1-1.2,0.4l-0.1,0h-0.3
		c0,0,0,0-0.1,0.1c-0.1,0-0.2,0.1-0.3,0.3c-0.1,0.1-0.2,0.3-0.4,0.4c-0.2,0.1-0.3,0.2-0.4,0.2l-0.2,0.1c-0.1,0-0.2,0.1-0.3,0.2
		c-0.1,0.1-0.3,0.3-0.5,0.5c-0.4,0.4-0.6,0.6-0.6,0.7l-0.2,0.1L89,62.5c-0.2,0.4-0.4,0.7-0.6,0.8c0,0-0.1,0.2-0.3,0.5
		c-0.1,0.4-0.2,0.6-0.3,0.6c-0.1,0-0.1,0.1-0.1,0.1c0,0,0,0,0,0.1c0.2,0,0.3-0.1,0.4-0.2c0.1-0.1,0.2-0.1,0.2-0.1s0.1,0,0.3-0.1h0.1
		c0.1,0,0.2,0,0.3-0.1h0.2c0-0.1,0.1-0.1,0.3-0.2c0.1-0.1,0.3-0.2,0.6-0.3c0.3-0.1,0.6-0.3,0.9-0.4c0.3-0.1,0.7-0.2,0.9-0.3
		c0.3-0.1,0.4-0.1,0.5-0.1c0.5,0,0.7,0.1,0.7,0.3c0,0.4-0.2,0.8-0.6,1.1c-0.4,0.3-0.6,0.5-0.7,0.5l-0.2,0L90.8,65
		c-0.1,0-0.2,0-0.2,0.1l-1,0.5l-0.4,0.3L88.9,66c-0.3,0.2-0.4,0.4-0.6,0.4l-0.2,0c-0.1,0.3-0.3,0.5-0.4,0.5c0,0-0.1,0-0.2-0.1
		c0,0,0,0,0,0.1c0,0-0.1,0.2-0.2,0.3c-0.1,0.2-0.2,0.2-0.3,0.3c-0.1,0-0.2,0.1-0.2,0.1c0,0.3-0.1,0.4-0.2,0.4l-0.2,0v0.2
		c0,0.1-0.1,0.2-0.2,0.2c-0.1,0.1-0.2,0.1-0.2,0.1c0,0-0.1,0.1-0.1,0.1l-0.2-0.1l0,0c0,0.1,0,0.1,0,0.2c0,0,0,0.1-0.1,0.1
		c-0.1,0.1-0.1,0.2-0.2,0.4c-0.1,0-0.1,0.1-0.2,0.1c-0.1,0.1-0.1,0.3-0.2,0.4c-0.1,0-0.1,0.1-0.2,0.2c-0.1,0.1-0.1,0.2-0.1,0.4
		c0,0.1-0.1,0.2-0.2,0.3c-0.1,0.1-0.2,0.2-0.2,0.4c-0.1,0.2-0.1,0.4-0.2,0.6c0,0.2-0.1,0.4-0.2,0.6c0,0,0,0,0,0l0,0.3
		c0,0,0,0.1,0.1,0.3c0.1,0.2,0.1,0.3,0.2,0.3c0.1,0,0.1,0.1,0.2,0.2c0,0,0.1,0,0.3,0.1l0.1-0.1c0.1,0,0.2,0,0.2,0.1h0l0.2,0l0.1,0
		c0.1,0,0.1,0,0.2-0.1c0,0,0,0,0,0l0.2,0.1c0.2-0.1,0.3-0.2,0.4-0.2c0.1,0,0.1,0,0.2-0.1c0-0.1,0.1-0.1,0.2-0.1c0,0,0.1,0,0.1,0.1h0
		c0,0,0.1,0,0.1-0.1c0.1-0.1,0.2-0.1,0.3-0.1c0.1,0,0.2-0.1,0.3-0.1c0.1,0,0.2-0.1,0.3-0.2c0.2,0,0.3-0.1,0.4-0.2l0.1,0
		c0.1,0,0.1-0.1,0.2-0.1c0.1-0.1,0.3-0.3,0.7-0.5l0.3-0.2c0.2-0.2,0.5-0.4,0.8-0.5c0.3-0.1,0.5-0.3,0.5-0.4l0.1-0.1
		c0.3,0,0.5-0.1,0.6-0.3c0.1-0.1,0.3-0.2,0.4-0.3c0-0.1,0.1-0.2,0.1-0.2l0.2,0l0,0c0-0.2,0.1-0.3,0.2-0.3c0.1,0,0.2-0.1,0.3-0.2
		c0.1-0.1,0.3-0.2,0.4-0.3l0.6-0.6c0,0,0.1-0.1,0.2-0.2c0-0.1,0.1-0.1,0.2-0.1l0.1-0.1c0,0,0.1-0.1,0.1-0.1c0.1,0,0.2-0.2,0.3-0.3
		c0.1-0.2,0.3-0.3,0.5-0.3c0,0,0.1,0,0.1,0.1c0,0.6-0.1,0.9-0.3,1.1c-0.2,0.2-0.5,0.4-0.9,0.8c0,0-0.1,0.1-0.2,0.2
		c-0.1,0.1-0.2,0.2-0.2,0.2c0,0-0.1,0.1-0.2,0.2c-0.1,0.1-0.2,0.2-0.2,0.2c-0.1,0-0.2,0.1-0.3,0.3L92.7,70l-0.2,0.3
		c-0.1,0-0.1,0.1-0.2,0.1c-0.1,0-0.1,0.1-0.1,0.1c0,0.1-0.1,0.1-0.2,0.2c-0.1,0.1-0.2,0.2-0.5,0.4L91,71.5c-0.1,0.1-0.2,0.1-0.3,0.2
		l-0.5,0.5c-0.1,0.2-0.3,0.2-0.4,0.2h-0.2c0,0-0.1,0-0.1-0.1l-0.1,0c-0.1,0-0.1,0-0.1,0l0,0.3c0,0-0.1,0-0.1,0l-0.1,0
		c-0.1,0.2-0.3,0.4-0.5,0.5c-0.2,0.1-0.3,0.2-0.3,0.2c0,0-0.1,0-0.1,0.1c-0.1,0-0.1,0.1-0.2,0.1c-0.1,0.1-0.2,0.1-0.4,0.2
		s-0.3,0.1-0.4,0.2c-0.1,0.1-0.2,0.1-0.2,0.1c-0.1,0-0.1,0-0.2-0.1c-0.1,0.1-0.2,0.2-0.2,0.3c0,0.1-0.1,0.2-0.2,0.2
		c0,0-0.3,0.1-0.6,0.2c-0.4,0.1-0.6,0.2-0.6,0.3l-0.3-0.1c-0.1,0.1-0.3,0.1-0.4,0.1l-0.2,0c-0.2,0-0.2,0.1-0.3,0.1l-1-0.5
		c-0.1,0-0.2-0.1-0.2-0.1c0,0,0,0-0.1,0c-0.3-0.1-0.5-0.3-0.5-0.5c-0.1-0.2-0.2-0.3-0.3-0.4L81.6,73.4z"/>
	<path id="XMLID_42_" class="st0" d="M96.8,66.2l-0.4-0.1c-0.2,0-0.4-0.3-0.4-0.7c0-0.4,0.3-0.7,0.8-0.9c0.6-0.3,0.9-0.4,1-0.5
		c0.1-0.1,0.3-0.1,0.5-0.1c0.1-0.1,0.4-0.2,0.6-0.4c0.3-0.1,0.5-0.2,0.6-0.3c0.1-0.1,0.2-0.1,0.4-0.2c0.1,0,0.2-0.1,0.3-0.2
		c0.1,0,0.2-0.1,0.3-0.1c0.1,0,0.2-0.1,0.5-0.2c0.2-0.1,0.4-0.1,0.4-0.2l0.3-0.2c0.2,0,0.4,0,0.4-0.1c0.1-0.1,0.2-0.1,0.5-0.2
		l0.4-0.1c0,0,0.1,0,0.2,0.1c0-0.2,0.1-0.3,0.2-0.3l0.4,0c0.1-0.1,0.2-0.1,0.3-0.1l0.1,0c0.2,0,0.3,0,0.3,0c0.1,0,0.1,0.1,0.2,0.2
		c0.1-0.1,0.1-0.2,0.2-0.2c0.1,0,0.3,0.1,0.5,0.2l0.2,0c0.2,0,0.3,0.1,0.3,0.2c0,0.1,0.1,0.2,0.1,0.3c0.1,0.1,0.1,0.2,0.2,0.3
		l0.1,0.1c0.1,0,0.1,0.1,0.1,0.2c0,0.2-0.1,0.4-0.3,0.7l-0.3,0.7c-0.1,0.2-0.2,0.3-0.3,0.4l-0.1,0.2c-0.1,0.1-0.2,0.2-0.3,0.3
		c-0.1,0.1-0.1,0.2-0.1,0.5c0,0.1-0.1,0.2-0.1,0.2c-0.1,0-0.1,0.1-0.1,0.2c-0.2,0-0.3,0.1-0.3,0.3l-0.6,1.1c0,0.1-0.1,0.1-0.3,0.2
		c-0.2,0.1-0.3,0.3-0.5,0.8c0.1-0.1,0.2-0.2,0.3-0.2l0.2-0.3l1.1-1c0.2-0.2,0.4-0.3,0.4-0.4s0.1-0.1,0.2-0.1c0-0.1,0.1-0.1,0.2-0.2
		c0.1-0.1,0.3-0.2,0.4-0.3l0.2-0.1l0.1-0.1c0.1-0.1,0.2-0.2,0.3-0.2l0.1-0.1c0-0.2,0.1-0.2,0.3-0.2c0,0,0.1-0.1,0.1-0.2
		c0-0.1,0.1-0.2,0.2-0.2h0.1l0,0c0-0.1,0-0.1,0.1-0.1c0,0,0.1-0.1,0.1-0.2c0,0,0,0,0,0c0,0,0.1-0.1,0.2-0.2c0.1-0.1,0.2-0.2,0.2-0.2
		c0.1,0,0.1-0.1,0.2-0.2c0-0.1,0.1-0.2,0.2-0.2c0.1-0.1,0.2-0.1,0.3-0.2c0.1-0.1,0.1-0.1,0.2-0.1c0,0,0.1,0,0.1,0.1
		c0-0.3,0.3-0.5,0.9-0.8l0.7-0.5c0.2-0.1,0.3-0.2,0.4-0.2c0.1,0,0.3-0.1,0.5-0.2c0.2-0.1,0.4-0.2,0.5-0.2c0.1,0,0.3,0,0.6,0l0.2,0
		c0.1,0,0.2,0,0.3,0c0.2,0,0.5,0.1,0.8,0.3c0.3,0.2,0.5,0.6,0.5,1c0,0.3-0.1,0.7-0.4,1c0,0-0.1,0.2-0.2,0.4
		c-0.1,0.2-0.2,0.4-0.2,0.5c-0.1,0.1-0.1,0.3-0.2,0.4c0,0.1-0.2,0.3-0.4,0.5c-0.2,0.2-0.3,0.4-0.4,0.7c0,0,0,0.1-0.1,0.2
		c-0.1,0.1-0.1,0.2-0.1,0.3c0,0.1-0.1,0.3-0.2,0.4c-0.1,0.2-0.2,0.3-0.2,0.5c0,0-0.1,0.2-0.4,0.5l-0.4,1c-0.1,0.1-0.2,0.3-0.3,0.6
		l-0.4,1c-0.1,0.2-0.2,0.3-0.3,0.4v0.3c-0.1,0.1-0.2,0.3-0.2,0.6c0,0.2,0,0.4-0.1,0.5c0,0.1,0,0.1,0,0.2c0,0.2,0.1,0.2,0.2,0.2
		c0.2,0,0.4-0.1,0.5-0.2c0.1-0.1,0.2-0.2,0.3-0.2c0.1,0,0.2-0.2,0.4-0.3l0.8-0.7c0.2-0.2,0.4-0.3,0.4-0.3s0.2-0.1,0.3-0.1
		c0.3-0.7,0.6-1,0.9-1c0.3,0,0.4,0.1,0.4,0.2l-0.1,0.2l0.1,0.2v0l-0.1,0.4c0,0-0.1,0.1-0.3,0.2c0,0.1-0.1,0.2-0.2,0.3
		c-0.1,0.1-0.2,0.2-0.3,0.3l-0.2,0c-0.1,0.2-0.1,0.3-0.2,0.4l-0.4,0.3c-0.1,0.1-0.3,0.2-0.5,0.3c-0.2,0.1-0.4,0.2-0.6,0.3
		c-0.2,0.1-0.4,0.1-0.4,0.2c-0.1,0.1-0.2,0.1-0.2,0.1h-0.2l-0.3,0.1l-0.7,0.1c-0.1,0-0.4-0.2-0.9-0.5c-0.5-0.3-0.8-0.9-0.8-1.7
		c0-0.3,0-0.5,0.1-0.6l0.1-0.1c0,0,0.1-0.1,0.1-0.3c0.1-0.1,0.1-0.3,0.2-0.4c0.1-0.1,0.2-0.1,0.2-0.2c0,0,0,0,0-0.1c0,0,0-0.1,0-0.1
		c0-0.1,0-0.1,0.1-0.2V69l0.7-1.1c0,0,0.1-0.2,0.3-0.6c0.2-0.4,0.3-0.6,0.4-0.7c0,0,0.1-0.1,0.1-0.1c0,0,0-0.1,0-0.1
		c0-0.1,0-0.1,0-0.2c0-0.1,0.1-0.2,0.2-0.3c0.1-0.1,0.2-0.3,0.3-0.5l0.1-0.2c0.1-0.1,0.2-0.2,0.2-0.4c0-0.1,0.1-0.2,0.1-0.3
		c0.4-0.5,0.7-1,0.7-1.4c0.1-0.1,0.1-0.2,0.2-0.3c0.1-0.1,0.1-0.2,0.1-0.3l-0.1-0.2c-0.2,0.1-0.4,0.2-0.6,0.3
		c-0.2,0.1-0.4,0.2-0.7,0.3c-0.2,0.1-0.4,0.2-0.5,0.2c-0.1,0.1-0.3,0.2-0.7,0.4l-0.2,0.2c0,0,0,0,0,0l-0.2,0c0,0-0.1,0.1-0.1,0.2
		c0,0.1-0.1,0.2-0.3,0.2c0,0-0.1,0.1-0.2,0.3c-0.1,0-0.2,0.1-0.5,0.2c-0.1,0.1-0.2,0.2-0.3,0.4c-0.1,0.2-0.2,0.3-0.4,0.3
		c-0.2,0.1-0.3,0.1-0.3,0.1c-0.1,0.4-0.2,0.6-0.5,0.7c-0.2,0.1-0.4,0.2-0.5,0.4c-0.1,0.2-0.2,0.4-0.4,0.4c-0.1,0-0.2,0.2-0.3,0.4
		c-0.1,0.2-0.3,0.4-0.5,0.5c-0.2,0.1-0.4,0.3-0.5,0.5c-0.2,0.2-0.3,0.4-0.4,0.4c-0.1,0.1-0.4,0.3-0.8,0.8c-0.4,0.4-0.6,0.7-0.7,0.8
		c0,0.1-0.2,0.3-0.5,0.6c0,0-0.1,0-0.2,0c0,0.1-0.1,0.1-0.1,0.2l-0.5,0.6c-0.2,0.2-0.5,0.5-0.7,0.9c-0.1,0-0.2,0.1-0.2,0.1
		c0,0-0.1,0.1-0.1,0.2l-0.1,0.1l-0.3,0.2c-0.2,0.5-0.5,0.8-0.9,0.8c-0.2,0-0.4-0.2-0.6-0.5c-0.2-0.3-0.3-0.5-0.3-0.5
		c0-0.5,0-0.8,0.1-0.9c0.1-0.1,0.2-0.3,0.3-0.4c0,0,0.1-0.1,0.1-0.2c0.1-0.2,0.1-0.3,0.2-0.4c0.1-0.1,0.2-0.3,0.3-0.5
		c0.1-0.2,0.2-0.3,0.3-0.3c0,0,0,0,0.1,0l0,0l0-0.3c0-0.1,0.1-0.1,0.1-0.2c0,0,0.1-0.1,0.1-0.3c0-0.1,0.2-0.2,0.3-0.3
		c0-0.1,0.1-0.2,0.2-0.4c0.1-0.2,0.2-0.3,0.3-0.6c0.1-0.2,0.2-0.3,0.4-0.4v-0.1c0-0.1,0.1-0.3,0.3-0.5c0.1,0,0.2-0.1,0.2-0.2
		c0-0.1,0.1-0.2,0.2-0.3c0.1-0.2,0.3-0.4,0.4-0.6l0.5-0.6c0.1-0.1,0.2-0.2,0.2-0.2c0-0.2,0.1-0.4,0.2-0.4c0,0,0,0,0.1,0
		c0-0.2,0.1-0.3,0.1-0.4c0.1-0.1,0.1-0.2,0.1-0.3c0-0.1,0.2-0.2,0.4-0.3l0-0.2c0.1-0.3,0.3-0.5,0.4-0.6c0,0,0.1-0.2,0.2-0.5
		c0,0-0.1-0.1-0.2-0.2c0,0.1-0.1,0.1-0.1,0.1l-0.4,0l-0.4,0.1c-0.1,0-0.2,0-0.2,0l-0.2,0c-0.2,0.1-0.3,0.1-0.3,0.2h0l-0.2,0h0
		l-0.6,0.4h0l-0.4,0c-0.1,0.1-0.3,0.2-0.7,0.3l-0.1,0.2l-0.3,0c-0.1,0-0.2,0.1-0.2,0.2c-0.1,0.1-0.2,0.1-0.2,0.1
		c-0.6,0.3-1,0.5-1.3,0.8c-0.1,0.1-0.1,0.1-0.2,0.2s-0.1,0.1-0.2,0.3l-0.1,0.2c0,0.1-0.1,0.2-0.2,0.2c-0.1,0-0.2,0.1-0.3,0.2
		C96.9,66.2,96.8,66.2,96.8,66.2z"/>
	<path id="XMLID_44_" class="st0" d="M118.8,60l0.2-0.2l0.2,0c0.1,0,0.3,0,0.4-0.1s0.2-0.1,0.2-0.1c0.1,0,0.1,0,0.2-0.1
		c0.1-0.1,0.2-0.1,0.4-0.2c0.2,0,0.3-0.1,0.4-0.2s0.2-0.1,0.3-0.1c0.1,0,0.2-0.1,0.3-0.1l1.1-0.3c0,0,0.1,0,0.1,0h0
		c0.1,0,0.2,0,0.3-0.1c0.1-0.1,0.2-0.1,0.3-0.1c0.1,0,0.2,0,0.5-0.1l0.1,0.1c0.1-0.1,0.2-0.2,0.3-0.2h0.1c0,0,0.1,0,0.2,0
		c0.2-0.1,0.4-0.1,0.5-0.1l0.3,0c0,0,0,0,0.1,0c0.1-0.1,0.2-0.1,0.3-0.1h0.1l0.5-0.1l0.1,0c0.1-0.1,0.3-0.1,0.5-0.1h0.1l0.1,0
		c0,0,0.1,0,0.2-0.1s0.5-0.1,1-0.1l0.3,0c0.2-0.1,0.3-0.1,0.3-0.1l0.3,0.1l0.1,0h0c0,0,0.1,0,0.1,0h0l0.9-0.1c0,0,0,0,0.1,0
		c0.1-0.1,0.1-0.1,0.1-0.1l0.2,0.1c0.1,0,0.2,0,0.3-0.1l0.1,0.1l0.8-0.1l0.3,0l0.3,0c0.3,0,0.5,0.1,0.6,0.2c0.1,0.1,0.2,0.3,0.2,0.4
		l0,0.4l-0.1,0.2l0,0.2c0,0.1-0.1,0.2-0.2,0.2c0,0,0,0-0.1,0.1c-0.1,0-0.1,0.1-0.2,0.1c-0.1,0-0.3,0.1-0.7,0.1
		c-0.2,0-0.3-0.1-0.4-0.2c-0.1-0.1-0.1-0.2-0.2-0.2l-0.5-0.2c0,0-0.1,0-0.1,0h-0.1l-0.5,0c0,0-0.1,0-0.1,0c-0.1,0-0.2,0.1-0.2,0.1
		l-0.9,0l-0.4,0l-0.3,0c0,0-0.1,0-0.2,0s-0.3,0-0.5,0.1c-0.3,0-0.4,0.1-0.4,0.2c0,0.1,0,0.2,0.1,0.3c0.1,0.1,0.1,0.2,0.1,0.3
		c-0.1,0.2-0.2,0.3-0.2,0.3c0,0-0.1,0.1-0.2,0.2c-0.1,0.1-0.2,0.2-0.5,0.4c-0.2,0.2-0.4,0.3-0.5,0.5c-0.1,0.1-0.2,0.2-0.3,0.2
		c-0.1,0.1-0.3,0.3-0.3,0.4l-0.1,0.1c0,0,0,0.1,0,0.1c0,0,0,0.1-0.1,0.1l-0.1,0.3c-0.1,0-0.2,0.2-0.5,0.6l-0.1,0.1l-0.1,0.2h-0.2
		c-0.1,0-0.1,0-0.1,0.1l0,0.4c-0.1,0.1-0.2,0.3-0.3,0.4l-0.1,0.2c-0.2,0.2-0.3,0.3-0.3,0.3c0,0-0.1,0.2-0.2,0.5l0,0.1
		c0,0.1-0.3,0.5-0.9,1.2c-0.1,0.2-0.1,0.4-0.1,0.7c-0.2,0.5-0.4,0.7-0.5,0.7c0,0.3-0.1,0.6-0.2,0.8s-0.2,0.5-0.3,0.9
		c-0.1,0.4-0.3,0.7-0.4,0.8l0,0.1c0,0.1-0.1,0.1-0.1,0.2c0,0.2-0.1,0.6-0.2,1.1l-0.1,0.5l-0.2,0.7c0,0,0,0.1,0,0.1
		c0,0,0,0.1,0.1,0.2c0.1,0.1,0.1,0.2,0.1,0.3c0,0.1,0,0.2-0.1,0.3c0,0.1-0.1,0.2-0.1,0.3c0,0.3-0.1,0.4-0.4,0.5H120l-0.3,0
		c-0.3,0-0.7-0.2-0.9-0.5c-0.3-0.3-0.4-0.8-0.4-1.4c0,0,0-0.2,0.1-0.4c0-0.2,0.1-0.4,0.1-0.4c0-0.1,0-0.1,0.1-0.2c0-0.1,0-0.2,0-0.3
		c0-0.4,0.1-0.8,0.3-1.1c0.2-0.3,0.3-0.5,0.4-0.6c0-0.1,0-0.1,0.1-0.1c0-0.1,0-0.1,0-0.2c0-0.2,0.1-0.4,0.3-0.6c0-0.1,0-0.1,0.1-0.2
		c0-0.1,0.1-0.3,0.3-0.6c0.1-0.3,0.3-0.5,0.5-0.6c0,0,0-0.1,0.1-0.2l0-0.4c0-0.1,0.1-0.2,0.2-0.3l0.2-0.3c0-0.1,0.1-0.3,0.3-0.4
		c0-0.1,0.1-0.1,0.2-0.1c0,0,0-0.1,0.1-0.3c0.1-0.2,0.2-0.4,0.4-0.7c0.2-0.3,0.4-0.5,0.6-0.8c0.2-0.3,0.4-0.4,0.5-0.4
		c0.2,0,0.2-0.1,0.3-0.3l0.1-0.5c0.2-0.2,0.4-0.4,0.4-0.4l0.2-0.2c0-0.1,0.1-0.2,0.1-0.2c0.1,0,0.1-0.1,0.2-0.2
		c0.1-0.1,0.2-0.2,0.3-0.3c0.1-0.3,0.4-0.6,0.7-0.9l0.2-0.2c0.1-0.2,0.3-0.3,0.3-0.4c0.1-0.1,0.2-0.2,0.2-0.3c0-0.1,0.1-0.2,0.3-0.3
		c0.1-0.1,0.2-0.1,0.2-0.2c0,0,0,0-0.1,0c-0.1,0-0.2,0-0.3,0.1h-0.1l-0.2,0h-0.1l-0.2,0c-0.1,0-0.3,0.1-0.3,0.1c0,0-0.1,0.1-0.2,0.1
		h-0.3l-0.1,0.1l-0.1,0l-0.3,0c-0.1,0-0.2,0-0.4,0.1c0,0-0.1,0-0.4,0.1c-0.3,0-0.5,0.1-0.8,0.2c-0.2,0.1-0.4,0.2-0.4,0.2l-0.2,0h0
		c-0.1,0-0.2,0.1-0.3,0.2c-0.1,0.1-0.2,0.2-0.4,0.2h-0.1c-0.1,0-0.3,0-0.5,0.1c-0.2,0.1-0.3,0.1-0.3,0.1l-0.2,0
		c-0.1,0.1-0.2,0.1-0.3,0.1c-0.1,0-0.1,0.1-0.2,0.1c-0.1,0.1-0.1,0.1-0.2,0.1c-0.1,0-0.1,0.1-0.2,0.1c-0.1,0.1-0.2,0.1-0.2,0.1h0
		l-0.1,0c-0.1,0-0.1,0.1-0.2,0.2c-0.1,0.1-0.2,0.2-0.3,0.2c-0.1,0-0.2,0.1-0.2,0.1c-0.1,0.1-0.1,0.1-0.2,0.1c0,0-0.1,0.1-0.2,0.3
		c-0.1,0.1-0.2,0.3-0.3,0.4c-0.1,0.1-0.2,0.2-0.2,0.2c0,0.1-0.1,0.1-0.1,0.1c-0.4,0-0.6-0.3-0.6-0.8l0.2-0.5
		c0.2-0.4,0.4-0.7,0.8-0.8c0.1,0,0.3-0.1,0.7-0.3L118.8,60z"/>
	<path id="XMLID_46_" class="st0" d="M137.2,71.1l0.1-0.2l0.3-0.4c0.2-0.3,0.3-0.4,0.4-0.5c0-0.1,0-0.1,0.1-0.2
		c0-0.1,0.1-0.1,0.1-0.3l0.1-0.2c0,0,0-0.1,0-0.1c0,0,0-0.1-0.1-0.1l-0.1-0.3c0-0.1-0.2-0.3-0.7-0.7h-0.1l-0.9-0.4l0-0.1l-0.1,0
		l-0.1,0h0l-0.4-0.1c-0.3-0.1-0.6-0.2-0.7-0.2c0,0,0,0-0.1,0l-0.5-0.1c-0.1,0-0.2-0.1-0.3-0.1s-0.1-0.1-0.2-0.1
		c-0.1,0-0.2-0.1-0.2-0.1c0,0-0.1,0-0.2,0l-0.3,0.1c0,0-0.1-0.1-0.3-0.1c0-0.1-0.1-0.1-0.1-0.1l-0.4,0c-0.2-0.1-0.4-0.2-0.4-0.2
		c0,0-0.2,0-0.4-0.1c-0.2,0-0.4-0.1-0.5-0.1c-0.1,0-0.2-0.1-0.3-0.1l-0.1-0.1c0,0-0.1,0-0.1,0h-0.2c0,0-0.1,0-0.2-0.1
		c-0.1-0.1-0.2-0.2-0.3-0.2c-0.1-0.1-0.3-0.2-0.4-0.4c-0.1-0.2-0.2-0.4-0.2-0.5c0,0,0,0,0,0l0.1-0.4c0.1-0.5,0.3-1,0.7-1.4
		c0.1-0.2,0.2-0.4,0.4-0.5l0-0.2c0.2-0.2,0.4-0.4,0.5-0.5c0.1-0.1,0.2-0.2,0.4-0.3c0.1-0.1,0.2-0.2,0.3-0.2l0.2-0.1
		c0-0.1,0.2-0.3,0.6-0.5c0.4-0.3,0.7-0.5,0.9-0.5c0.2-0.1,0.4-0.2,0.4-0.2c0.1,0,0.3-0.1,0.6-0.2c0.1-0.2,0.2-0.3,0.4-0.3h0.2
		l0.2-0.2l0.3,0c0,0,0.1-0.1,0.1-0.2c0.1-0.1,0.2-0.1,0.4-0.1l1.5-0.5h0.1l0.1,0c0.1,0,0.2-0.1,0.3-0.2c0.1-0.1,0.2-0.2,0.4-0.2
		c0,0,0.1,0,0.2,0.1c0,0,0,0,0,0l0.3-0.1l0.4,0L140,58c0.3,0,0.6,0.1,0.8,0.2l0,0v-0.1c0-0.1,0.1-0.2,0.2-0.2c0.1,0,0.1,0,0.1,0
		l0.1,0.1h0.1c0,0,0.1,0,0.3,0.1c0.1-0.1,0.2-0.1,0.2-0.1c0.2,0,0.3,0.1,0.4,0.2l0.2,0c0.1-0.1,0.1-0.1,0.1-0.1c0,0,0.1,0.1,0.2,0.2
		l0.1,0h0.3c0,0,0,0,0.1,0.1l0.1,0.1c0.1,0.1,0.1,0.1,0.1,0.2c0,0,0.1,0.1,0.1,0.1c0.2-0.1,0.3-0.1,0.3-0.1c0.1,0,0.1,0.1,0.2,0.2
		c0,0.1,0.1,0.2,0.2,0.3c0.1,0.1,0.2,0.2,0.2,0.4c0.2,0.1,0.3,0.2,0.3,0.4l0.2,0.6l0,0.2c0.1,0.1,0.1,0.2,0.1,0.2l0,0.5l0,0.5
		c0,0.3-0.1,0.5-0.4,0.7c0,0-0.1,0-0.2,0.1c-0.1,0.1-0.2,0.1-0.2,0.1c-0.2,0-0.4-0.1-0.4-0.2c-0.1-0.1-0.1-0.2-0.2-0.2
		s-0.1-0.1-0.1-0.2c0-0.2,0.1-0.4,0.4-0.6c0.1,0,0.2,0,0.2-0.1c0-0.2,0-0.3-0.1-0.4c-0.1-0.1-0.2-0.2-0.2-0.3
		c-0.1-0.1-0.2-0.2-0.3-0.3c-0.1-0.1-0.2-0.2-0.2-0.3c-0.1-0.1-0.1-0.2-0.2-0.2l-0.2,0l-0.4-0.1c-0.4,0-0.7-0.1-1-0.3h-0.2l-0.7-0.1
		c-0.1,0-0.3,0.1-0.5,0.1l-0.8,0.1l-0.3,0c0,0-0.3,0.1-0.7,0.2l-0.1,0h-0.3c0,0-0.1,0-0.3,0.1c-0.2,0.1-0.4,0.1-0.5,0.2l-0.1,0
		c0,0,0,0-0.1,0l-0.2,0l-1.1,0.5l-0.2-0.1c-0.1-0.1-0.2-0.1-0.2-0.1c-0.1,0-0.2,0.1-0.2,0.2l0,0.2c-0.1,0.1-0.2,0.1-0.2,0.1
		c0,0-0.1,0.1-0.1,0.1h-0.1c-0.1,0-0.2,0-0.3,0.1c-0.1,0.1-0.2,0.1-0.2,0.1c-0.1,0-0.2,0-0.3,0.1c0,0-0.1,0.1-0.2,0.1
		c-0.1,0-0.2,0.1-0.3,0.2c-0.1,0.1-0.1,0.2-0.2,0.2l-0.2,0l-0.1,0.2c-0.2,0-0.3,0.1-0.3,0.1c-0.1,0.1-0.2,0.2-0.3,0.3
		c-0.1,0.1-0.2,0.2-0.3,0.2c-0.1,0.1-0.2,0.2-0.2,0.3c0,0.1-0.1,0.2-0.2,0.2c-0.1,0.1-0.2,0.2-0.2,0.3l-0.1,0.1
		c-0.2,0.2-0.3,0.4-0.3,0.6c0,0.1,0.1,0.2,0.3,0.3c0.2,0.1,0.3,0.1,0.4,0.2c0,0,0.1,0.1,0.2,0.1c0.1,0,0.2,0,0.3,0.1
		c0.1,0,0.2,0.1,0.5,0.2c0,0.1,0.1,0.2,0.1,0.2c0,0,0,0,0.1-0.1c0-0.1,0.1-0.1,0.2-0.1c0.1,0,0.2,0.1,0.3,0.2l0.1-0.1h0l0.2,0h0
		l0.1-0.1c0,0,0,0,0.1,0c0,0,0.2,0,0.4,0.1h0c0,0,0.1,0,0.2,0c0.1,0,0.2,0.1,0.2,0.1l0.2,0.1c0,0,0,0,0,0c0,0,0.1,0,0.1-0.1
		c0.1,0,0.1-0.1,0.2-0.1c0.1,0,0.1,0,0.2,0.1c0.1-0.1,0.2-0.1,0.2-0.1c0.1,0,0.2,0.1,0.4,0.2l0.2,0h0.3l0.4,0.1
		c0.1,0.1,0.2,0.2,0.4,0.3c0-0.1,0.1-0.1,0.2-0.1c0.1,0,0.3,0.1,0.6,0.2l0.1,0l0.1,0.1c0.1,0,0.2,0,0.3,0c0.2,0,0.2,0.1,0.2,0.2
		c0,0.1,0,0.2-0.1,0.4c0,0,0,0,0.1,0c0,0,0.1-0.1,0.1-0.1L139,67c0,0,0.1,0,0.1,0c0.2,0,0.5,0.1,0.8,0.4c0.3,0.3,0.5,0.6,0.6,0.9
		c0,0.1,0,0.2,0.1,0.3l0,0.2l0,0.2c0,0,0,0.1,0,0.2l0,0.2c0,0,0,0.1-0.1,0.1c0,0-0.1,0.1-0.1,0.1l0.1,0.2v0c0,0,0,0.1-0.1,0.1
		c-0.1,0.1-0.1,0.1-0.1,0.2c0,0,0,0.1-0.1,0.2c0,0.1-0.1,0.1-0.1,0.2c0,0.1-0.1,0.2-0.2,0.3c-0.1,0.1-0.2,0.2-0.2,0.2s0,0.1,0,0.1
		c0.1,0,0.2,0,0.3-0.1c0.1-0.1,0.2-0.2,0.3-0.2c0.1,0,0.2-0.1,0.3-0.1l1.2-0.5c0.9-0.4,1.3-0.6,1.4-0.6c0.1,0,0.2,0.1,0.2,0.2
		c0,0-0.1,0.1-0.2,0.3c0,0.4-0.2,0.6-0.5,0.7c-0.1,0.1-0.2,0.2-0.3,0.3h-0.1c-0.2,0.2-0.4,0.3-0.7,0.3h-0.1
		c-0.3,0.3-0.7,0.5-1.1,0.5c-0.3,0.3-0.5,0.4-0.7,0.4l-0.2,0c-0.2,0.1-0.4,0.1-0.4,0.1c0,0,0,0-0.1,0.1l-0.2,0.1
		c-0.2,0-0.3,0.1-0.5,0.3c-0.2,0.1-0.3,0.2-0.4,0.3c-0.1,0-0.2,0.1-0.3,0.1s-0.5,0.3-1.3,0.8l-0.2,0c-0.3,0.1-0.5,0.3-0.6,0.4
		c-0.1,0.1-0.2,0.2-0.3,0.2h0c-0.2,0-0.4,0.1-0.7,0.4c0,0-0.2,0.1-0.5,0.2c-0.3,0.1-0.7,0.2-1,0.4c-0.2,0-0.4,0.1-0.7,0.2
		c-0.3,0.1-0.5,0.1-0.6,0.1l-0.9,0.2c-0.2,0-0.4,0.1-0.7,0.1c-0.1,0-0.3-0.1-0.4-0.1l-0.2,0c0,0-0.1,0-0.2-0.1
		c-0.1-0.1-0.2-0.1-0.3-0.2c-0.1-0.1-0.2-0.2-0.2-0.4c0-0.2,0.2-0.4,0.7-0.6c0.5-0.2,0.8-0.3,0.9-0.4c0.1-0.1,0.2-0.1,0.3-0.2
		c0.2,0,0.3-0.1,0.4-0.1c0.1-0.1,0.3-0.2,0.5-0.2l0.5-0.3c0,0,0,0,0.1,0h0.2c0.1,0,0.1,0,0.3-0.1c0.1-0.1,0.2-0.2,0.4-0.2h0.1
		c0,0,0,0,0.1-0.1c0,0,0.1-0.1,0.2-0.2l0,0h0.1c0.1-0.1,0.2-0.1,0.3-0.2c0.1,0,0.2-0.1,0.4-0.2l1-0.4l0.2,0c0,0,0.1,0,0.2-0.1
		c0.1-0.1,0.3-0.2,0.6-0.2c0-0.1,0.1-0.1,0.3-0.2c0.1-0.1,0.3-0.2,0.5-0.4L137.2,71.1z M132.9,74.3l-0.2,0c-0.1,0.1-0.2,0.1-0.3,0.1
		c-0.1,0-0.3,0.1-0.5,0.2c-0.2,0.1-0.5,0.3-0.8,0.4c-0.3,0.1-0.5,0.2-0.5,0.3c0.4,0,0.8-0.2,1.3-0.3l0.9-0.2c0.1,0,0.2-0.1,0.2-0.1
		c0,0,0.1-0.1,0.3-0.1l0.2-0.1c0,0,0.1,0,0.3-0.1s0.2-0.1,0.2-0.1c0,0,0,0,0,0c-0.3,0-0.5,0-0.7,0.1C133,74.2,132.9,74.3,132.9,74.3
		z"/>
</g>
<g id="XMLID_12_">
	<g id="XMLID_17_">
		<path id="XMLID_19_" class="st0" d="M149.5,1.8h-6.9c-0.7,0-1.3,0.8-1.3,1.8v42l4.8,10l4.8-10v-42C150.8,2.6,150.2,1.8,149.5,1.8z
			 M146,52.2l-3.1-6.2h6.2L146,52.2z M149.6,43.9h-7.2V11.5h2.4V42h2.4V11.5h2.4V43.9z M149.6,9.9h-7.2V4.8c0-0.8,0.5-1.4,1-1.4h5.2
			c0.6,0,1,0.6,1,1.4V9.9z"/>
	</g>
</g>
<rect id="XMLID_175_" class="st1" width="200" height="80"/>
</svg>
